<svg height="75" preserveAspectRatio="none" viewBox="0 0 24 24" width="75" xmlns="http://www.w3.org/2000/svg"><path d="m13.24 17.24c-.06.06-.15.09-.24.09h-2c-.18.01-.32-.13-.33-.31 0-.01 0-.01 0-.02v-2c-.01-.18.13-.32.31-.33h.02 2c.18-.01.32.13.33.31v.02 2c0 .09-.03.18-.09.24zm2.76-7.24c0 .29-.04.57-.13.84-.07.22-.17.43-.29.63-.13.19-.28.36-.46.5-.15.13-.31.25-.48.36l-.51.3c-.23.13-.42.31-.57.52-.12.15-.2.33-.22.52.01.18-.13.32-.31.33-.01 0-.02 0-.03 0h-2c-.18.01-.32-.13-.33-.31 0-.01 0-.01 0-.02v-.38c.01-.48.21-.94.54-1.29.33-.38.74-.69 1.2-.9.27-.11.51-.27.71-.47.15-.18.22-.4.21-.63-.02-.26-.17-.49-.39-.61-.55-.35-1.24-.35-1.79 0-.34.29-.64.63-.9 1-.06.08-.16.12-.26.12-.07.01-.14-.02-.2-.06l-1.37-1c-.14-.09-.19-.27-.1-.41.01-.01.01-.02.02-.03.77-1.41 2.26-2.27 3.86-2.22 1.25-.02 2.44.54 3.22 1.51.38.49.58 1.08.58 1.7zm2.93-2c-.7-1.21-1.71-2.22-2.93-2.92-1.21-.71-2.59-1.09-4-1.08-1.41-.01-2.79.37-4 1.08-1.21.7-2.22 1.71-2.92 2.92-.71 1.21-1.09 2.59-1.08 4-.01 1.41.36 2.79 1.07 4 .7 1.21 1.71 2.22 2.93 2.92 1.21.71 2.59 1.09 4 1.08 1.41.01 2.79-.36 4-1.07 1.21-.7 2.22-1.71 2.92-2.93.71-1.21 1.09-2.59 1.08-4 .01-1.41-.37-2.79-1.08-4z" fill="#fff"/></svg>