<svg height="257" preserveAspectRatio="none" viewBox="0 0 24 24" width="251" xmlns="http://www.w3.org/2000/svg"><path d="m13.88 11.22c-1.04 1.04-2.72 1.04-3.76.01 0 0-.01-.01-.01-.01-1.05-1.04-1.05-2.72-.01-3.76 0 0 .01-.01.01-.01 1.04-1.04 2.72-1.04 3.76-.01 0 0 .01.01.01.01.98 1.03.92 2.69 0 3.77zm3.45-1.88c.02-1.42-.54-2.78-1.56-3.77-.99-1.02-2.35-1.59-3.77-1.57-1.42-.02-2.78.55-3.77 1.57-1.02.99-1.58 2.35-1.56 3.76-.03.64.08 1.28.33 1.87l3.8 8.06c.1.23.27.41.48.54.43.26.98.26 1.41 0 .21-.13.38-.32.49-.54l3.82-8.06c.25-.59.36-1.22.34-1.86z" fill="#2b580c"/></svg>